PathFileType	4	(X/Y/Z)	C:\Users\°ÂÌØÂü\Desktop\20210112\bx_y_10_1801-Unnamed.trc
DataRate	CameraRate	NumFrames	NumMarkers	Units	OrigDataRate	OrigDataStartFrame	OrigNumFrames
50.00	50.00	       5	0	mm	50.00	1	       468
Frame#	Time	
		

1	0.000	-685.65778	-72.08745	1557.25122	-698.43158	283.61551	1544.97681	-598.11578	101.89085	1435.95215	-601.77112	-11.97931	1047.46191	-585.50183	211.89330	1066.46033	-597.40356	-9.50692	800.30066	-643.31830	275.04575	876.07288	-589.84326	208.23856	813.82678	-726.64673	248.46535	645.56970	-704.06134	76.68690	574.47687	-696.98730	139.62030	573.11365	-678.83862	15.39405	520.08527	-732.57977	243.66368	577.52869	-680.07745	202.23401	532.51807	-774.09100	254.87163	503.32867				-663.49493	-68.16189	162.90837	-712.78448	152.26907	216.44119	-771.59528	223.60629	205.05603	-622.21802	-78.79022	158.75299	-882.66003	296.11053	144.51537	-675.77539	55.29265	157.43115	-603.24170	19.65375	166.45335	-560.32581	-40.86297	163.25406	-675.65723	171.93129	156.95570	-594.69592	222.04192	173.50046	-666.05389	298.85477	160.78329	-628.35272	306.18500	161.77441	-560.79254	261.22278	165.67909	-528.47675	304.41357	146.79608	-675.44324	102.43490	1855.66211	-689.89404	270.86264	748.91699	-518.02905	-72.49312	143.04015	-797.15448	173.42905	183.00269	-797.65625	93.73620	1060.16003	-767.08997	-7.75870	206.47142	-796.12061	52.46139	174.09570	-772.58673	-39.84093	487.01788	-876.03320	-78.59757	141.50241	-719.12561	76.74593	217.03656	-708.91840	-54.13077	716.98254	-713.54620	-32.08109	617.16528	-727.81531	-28.87834	565.66498	-661.23822	-71.52405	868.11011	
2	0.020	-685.52985	-71.83730	1557.08228	-698.42749	283.76413	1544.95227	-598.01282	101.80537	1436.02966	-601.88397	-12.10074	1047.60217	-585.38824	211.99254	1066.56628	-597.36255	-9.55003	800.21906	-643.34412	275.02148	876.20074	-589.90558	208.36330	813.71338	-726.60217	248.27734	645.50696	-704.06134	76.68690	574.47687	-697.30524	139.91972	573.34882	-678.83862	15.39405	520.08527	-732.58551	243.75018	577.49933	-680.09515	202.40108	532.53766	-774.09100	254.87163	503.32867				-663.33527	-67.75224	162.75421	-712.74609	152.20711	216.56374	-771.39240	223.63365	204.73657	-622.28357	-78.96193	158.67525	-882.58575	296.13757	144.56622	-675.71381	55.39492	157.61693	-603.18445	19.72977	166.40411	-560.53973	-41.15053	163.23398	-675.65723	171.93129	156.95570	-594.75995	222.01654	173.51459	-666.04352	298.53729	160.92178	-628.50128	305.99850	161.73109	-560.77509	261.24139	165.53278	-528.40656	304.24548	146.81802	-675.18848	102.42810	1855.58533	-689.86896	271.03217	748.97345	-517.99561	-72.57688	142.93742	-797.22998	173.49359	183.16263	-797.71936	93.57504	1060.09180	-766.96222	-7.64401	206.27309	-796.11890	52.62030	174.17447	-772.47180	-39.58962	486.92062	-876.03320	-78.59757	141.50241	-718.95282	76.65008	217.05272	-708.72644	-53.85213	716.85107	-713.62543	-32.19187	617.58679	-727.88635	-28.67448	565.75909	-661.23822	-71.52405	868.11011	
3	0.040	-685.42651	-71.84015	1557.24121	-698.31677	283.84061	1544.99146	-597.91675	101.87428	1436.08057	-601.92834	-11.69051	1047.49878	-585.50031	212.06902	1066.49841	-597.25665	-9.33187	800.32538	-643.40320	275.33896	876.00305	-590.04169	208.35635	813.55981	-726.64673	248.46535	645.56970	-704.14380	76.91753	574.16498	-696.67291	139.86760	573.38403	-678.80304	15.39965	519.98669	-732.54443	243.74622	577.59772	-679.99548	202.39293	532.46594	-774.08807	254.92407	503.28647				-663.40814	-67.73353	162.92932	-712.69525	152.37718	216.40646	-771.54480	223.67079	205.08450	-622.21802	-78.79022	158.75299	-882.57111	296.04724	144.60146	-675.89282	55.26257	157.28764	-603.19641	19.44293	166.55653	-560.37854	-41.23390	163.15430	-675.76550	171.97298	156.98016	-594.69592	222.04192	173.50046	-666.06482	298.67780	160.89627	-628.19897	306.16644	161.67992	-560.69305	261.09073	165.74632	-528.39606	304.35452	146.88464	-674.73126	102.64481	1855.65393	-689.86896	271.03217	748.97345	-518.07513	-72.41663	143.01378	-797.01239	173.55452	182.94913	-797.78534	93.92850	1060.08728	-767.01495	-7.63843	206.14238	-796.06848	52.63985	174.15485	-772.40094	-39.66201	487.00067	-876.13251	-78.56548	141.43300	-718.95282	76.65008	217.05272	-708.83765	-53.78609	716.64069	-713.37653	-32.19590	617.61505	-727.76660	-28.71193	565.86481	-661.47040	-71.30499	867.88885	
4	0.060	-685.41309	-71.73659	1557.16150	-698.20367	283.81339	1545.00012	-597.73401	102.04212	1436.10864	-602.09259	-11.83358	1047.58521	-585.49329	212.12611	1066.41541	-597.24579	-9.51551	800.39960	-643.31830	275.04575	876.07288	-590.03314	208.41818	813.67133	-726.58014	248.59387	645.65033	-704.25464	76.89065	574.36151	-697.14771	140.10461	573.44940	-678.83862	15.39405	520.08527	-732.28058	243.81665	577.51318	-680.02850	202.34215	532.47235	-774.08807	254.92407	503.28647				-663.37836	-67.78164	162.66942	-712.61670	152.11597	216.50502	-771.55939	223.54898	205.02292	-622.25543	-78.79689	158.74986	-882.74536	296.02060	144.44994	-675.98334	55.36879	157.15514	-603.21790	19.60622	166.57089	-560.32056	-41.03585	163.38110	-675.68536	171.98997	157.09875	-594.70483	222.03151	173.66191	-666.00189	298.51566	160.73117	-628.43488	306.18198	161.61374	-560.70874	261.24918	165.48405	-528.55725	304.46194	146.82272	-674.22040	102.68761	1855.67432	-689.89404	270.86264	748.91699	-517.90210	-72.44070	142.98438	-797.23541	173.36896	183.06363	-797.85284	93.82488	1060.12122	-766.97009	-7.68423	206.22273	-796.05249	52.39046	174.07887	-772.42847	-39.76310	487.20279	-876.03320	-78.59757	141.50241	-718.99548	76.77122	216.95261	-708.96008	-53.97950	717.09552	-713.45624	-32.18581	617.44019	-727.71936	-28.71159	565.58691	-661.35840	-71.36957	868.04333	
5	0.080	-685.18872	-71.65985	1557.24695	-697.99695	284.04147	1544.82068	-597.65643	102.14969	1436.09351	-602.10394	-11.58499	1047.74170	-585.91400	212.17143	1066.32788	-597.56860	-9.22281	800.21948	-643.43689	275.42633	875.97351	-589.96387	208.54314	813.76483	-726.58014	248.59387	645.65033	-704.14380	76.91753	574.16498	-696.96753	140.11305	573.60907	-678.78223	15.52205	520.21771	-732.19250	243.83159	577.17072	-679.93634	202.44583	532.45917	-774.04553	254.94650	503.30698				-663.63678	-67.95940	162.98656	-712.82098	152.31558	216.51701	-771.54480	223.67079	205.08450	-622.21802	-78.79022	158.75299	-882.53766	296.18567	144.65939	-675.89282	55.26257	157.28764	-603.17352	19.59738	166.54460	-560.29724	-41.14465	163.21225	-675.71069	172.09340	157.12146	-594.83649	222.05931	173.52873	-665.97681	298.57065	160.90080	-628.31421	306.10123	161.68556	-560.74792	261.11349	165.72330	-528.55493	304.33511	146.66576	-673.51611	102.65569	1855.68213	-689.79254	271.27481	749.01196	-518.02197	-72.25551	142.85814	-797.18286	173.48438	183.05276	-797.92786	93.90188	1060.20032	-766.96222	-7.64401	206.27309	-796.18579	52.56118	174.24805	-772.31128	-39.64787	487.12271	-876.03320	-78.59757	141.50241	-718.99548	76.77122	216.95261	-708.96008	-53.97950	717.09552	-713.25836	-32.14374	617.52820	-727.94397	-28.46532	565.55249	-661.37634	-71.11262	868.14740	
